<?xml version="1.0" encoding="UTF-8"?>
<svg width="128px" height="38px" viewBox="0 0 128 38" version="1.1" xmlns="http://www.w3.org/2000/svg" xmlns:xlink="http://www.w3.org/1999/xlink">
    <!-- Generator: Sketch 55.1 (78136) - https://sketchapp.com -->
    <title>Group 3</title>
    <desc>Created with Sketch.</desc>
    <g id="Page-1" stroke="none" stroke-width="1" fill="none" fill-rule="evenodd">
        <g id="Desktop-HD-1" transform="translate(-46.000000, -29.000000)" fill="#FFFFFF" fill-rule="nonzero">
            <g id="Group-3" transform="translate(46.000000, 29.000000)">
                <g id="Logo/Vertical/White" transform="translate(78.000000, 0.000000)">
                    <path d="M10.3412578,7.91138506 C11.8363794,8.4817984 12.9577206,9.84583031 12.9577206,11.3338651 C12.9577206,12.8467005 12.3098346,13.7395214 10.7897943,15.2771574 L8.69662401,17.3604061 L0,17.3604061 L0,0 L7.2015024,0 C10.8645503,0 12.4593467,2.18245105 12.4593467,4.01769398 C12.4593467,5.48092821 11.6868672,6.52255257 10.9143877,7.31617114 L10.3412578,7.91138506 Z M3.02022059,2.98984772 L3.02022059,7.13705584 L6.86699478,7.13705584 C8.42581831,7.13705584 9.25551471,6.11245148 9.25551471,5.06345178 C9.25551471,3.89247537 8.42581831,2.98984772 6.86699478,2.98984772 L3.02022059,2.98984772 Z M7.3346137,14.3705584 C8.88980191,14.3705584 9.74264706,13.3037178 9.74264706,12.1398917 C9.74264706,10.9760656 8.88980191,10.0304569 7.08377689,10.0304569 L3.02022059,10.0304569 L3.02022059,14.3705584 L7.3346137,14.3705584 Z M15.6856618,17.3604061 L15.6856618,0 L18.7058824,0 L18.7058824,17.3604061 L15.6856618,17.3604061 Z M28.1360518,8.43219724 L36.1452206,17.3604061 L31.7788513,17.3604061 L24.9423646,9.00261059 L24.9423646,17.3604061 L21.8235294,17.3604061 L21.8235294,0 L24.9423646,0 L24.9423646,7.9857868 L31.8537034,0 L35.9206645,0 L28.1360518,8.43219724 Z M38.09375,17.3604061 L38.09375,0 L49.6875,0 L49.6875,2.97606962 L41.2442255,2.97606962 L41.2442255,7.19216824 L48.8053668,7.19216824 L48.8053668,10.044235 L41.2442255,10.044235 L41.2442255,14.3843365 L49.6875,14.3843365 L49.6875,17.3604061 L38.09375,17.3604061 Z M0,38 L0,20.6395939 L3.13929739,20.6395939 L3.13929739,35.0239304 L11.3014706,35.0239304 L11.3014706,38 L0,38 Z M26.2258057,38 L24.8291652,33.8831037 L17.6215024,33.8831037 L16.2248619,38 L12.9577206,38 L18.9433229,20.6395939 L23.6320447,20.6395939 L29.6176471,38 L26.2258057,38 Z M18.7058824,30.9593909 L23.7720588,30.9593909 L21.2389706,23.1472081 L18.7058824,30.9593909 Z M42.0048607,28.550979 C43.4999823,29.1213923 44.6213235,30.4854242 44.6213235,31.973459 C44.6213235,33.4862944 43.9734375,34.3791153 42.4533972,35.9167513 L40.360227,38 L31.6636029,38 L31.6636029,20.6395939 L38.8651053,20.6395939 C42.5281533,20.6395939 44.1229497,22.822045 44.1229497,24.6572879 C44.1229497,26.1205221 43.3504702,27.1621465 42.5779907,27.955765 L42.0048607,28.550979 Z M34.6838235,23.5329949 L34.6838235,27.680203 L38.5305977,27.680203 C40.0894213,27.680203 40.9191176,26.6555987 40.9191176,25.606599 C40.9191176,24.4356226 40.0894213,23.5329949 38.5305977,23.5329949 L34.6838235,23.5329949 Z M38.9982166,35.0101523 C40.5534049,35.0101523 41.40625,33.9433117 41.40625,32.7794856 C41.40625,31.6156595 40.5534049,30.6700508 38.7473798,30.6700508 L34.6838235,30.6700508 L34.6838235,35.0101523 L38.9982166,35.0101523 Z" id="BIKELAB-Copy"></path>
                </g>
                <g id="Group">
                    <path d="M27.3885617,26.0661157 C26.5340879,32.7955083 20.7530784,38 13.7487047,38 C6.15550475,38 0,31.8836917 0,24.338843 C0,16.7939943 6.15550475,10.677686 13.7487047,10.677686 C16.6709081,10.677686 19.380181,11.583545 21.6076193,13.1280713 L29.4568031,4.00447588 L31.8592591,6.0451109 L23.9758607,15.2084761 C25.867579,17.2991627 27.1193406,19.9730304 27.424735,22.9256198 L33.5757572,22.9256198 C34.1128019,17.7624318 37.5622287,13.3386382 42.4633787,11.529324 C43.9829097,10.9683721 45.5981789,10.677686 47.2512953,10.677686 C54.8444953,10.677686 61,16.7939943 61,24.338843 C61,31.8836917 54.8444953,38 47.2512953,38 C40.2469216,38 34.4659121,32.7955083 33.6114383,26.0661157 L27.3885617,26.0661157 Z M19.5407883,15.5304777 C17.8764386,14.4477498 15.8865645,13.8181818 13.7487047,13.8181818 C7.90106795,13.8181818 3.16062176,18.5284423 3.16062176,24.338843 C3.16062176,30.1492437 7.90106795,34.8595041 13.7487047,34.8595041 C19.0042874,34.8595041 23.3655287,31.054756 24.1947769,26.0661157 L10.4768004,26.0661157 L19.5407883,15.5304777 Z M21.898917,17.6226372 L17.3366711,22.9256198 L24.2420824,22.9256198 C23.9717763,20.9251105 23.1356382,19.1027175 21.898917,17.6226372 Z M36.8052231,26.0661157 C37.6344713,31.054756 41.9957126,34.8595041 47.2512953,34.8595041 C53.0989321,34.8595041 57.8393782,30.1492437 57.8393782,24.338843 C57.8393782,18.5284423 53.0989321,13.8181818 47.2512953,13.8181818 C45.9753515,13.8181818 44.732723,14.041807 43.5641207,14.4732096 C39.8931245,15.8283988 37.2792754,19.0890045 36.7584893,22.9256198 L47.4093264,22.9256198 L47.4093264,26.0661157 L36.8052231,26.0661157 Z M50.253886,3.14049587 L44.2487047,3.14049587 L44.2487047,0 L53.4145078,0 L53.4145078,8.16528926 L50.253886,8.16528926 L50.253886,3.14049587 Z" id="Combined-Shape"></path>
                </g>
            </g>
        </g>
    </g>
</svg>