<?xml version="1.0" encoding="UTF-8"?>
<svg width="677px" height="153px" viewBox="0 0 677 153" version="1.1" xmlns="http://www.w3.org/2000/svg" xmlns:xlink="http://www.w3.org/1999/xlink">
    <!-- Generator: Sketch 55.1 (78136) - https://sketchapp.com -->
    <title>Group 2</title>
    <desc>Created with Sketch.</desc>
    <g id="Page-1" stroke="none" stroke-width="1" fill="none" fill-rule="evenodd">
        <g id="Desktop-HD-1" transform="translate(-383.000000, -200.000000)" fill="#FFFFFF">
            <g id="Group-2" transform="translate(383.000000, 200.000000)">
                <path d="M74.1425781,0 C85.1933594,0 92,6.75714286 92,14.5357143 C92,20.6642857 88.3164062,24.5928571 84.3925781,28.6785714 L77.3457031,35.9071429 L61.0097656,35.9071429 L61.0097656,55 L51,55 L51,0 L74.1425781,0 Z M72.4692308,27 C78.2038462,27 82,22.92 82,17.88 C82,12.92 78.2038462,9 72.4692308,9 L61,9 L61,27 L72.4692308,27 Z M115.392226,15 L122,15 L122,25.1084813 L117.102473,25.1084813 C111.660777,25.1084813 109.328622,27.5345168 109.328622,33.1952663 L109.328622,56 L100,56 L100,15 L109.328622,15 L109.328622,21.5502959 L115.392226,15 Z M148.079051,56 C136.774704,56 128,47.1537002 128,36.6337761 C128,31.5332068 129.818182,26.7514231 133.849802,22.5275142 L140.648221,15.4345351 C141.833992,14.7969639 144.521739,14 147.920949,14 C159.146245,14 168,22.8462998 168,33.4459203 C168,38.3870968 166.339921,43.0094877 161.754941,47.8709677 L155.509881,54.4857685 C153.375494,55.4421252 151.083004,56 148.079051,56 Z M149.195652,47 C153.898551,47 159,43.6384365 159,36.2117264 C159,28.1596091 152.463768,23 146.804348,23 C142.021739,23 137,26.3615635 137,33.7882736 C137,41.8403909 143.536232,47 149.195652,47 Z M200,14.8721461 L200,23.7366819 L191.409091,23.7366819 L191.409091,55 L181.590909,55 L181.590909,23.7366819 L173,23.7366819 L173,14.8721461 L181.590909,14.8721461 L181.590909,3 L191.409091,3 L191.409091,14.8721461 L200,14.8721461 Z M224.079051,56 C212.774704,56 204,47.1537002 204,36.6337761 C204,31.5332068 205.818182,26.7514231 209.849802,22.5275142 L216.648221,15.4345351 C217.833992,14.7969639 220.521739,14 223.920949,14 C235.146245,14 244,22.8462998 244,33.4459203 C244,38.3870968 242.339921,43.0094877 237.754941,47.8709677 L231.509881,54.4857685 C229.375494,55.4421252 227.083004,56 224.079051,56 Z M225.195652,47 C229.898551,47 235,43.6384365 235,36.2117264 C235,28.1596091 228.463768,23 222.804348,23 C218.021739,23 213,26.3615635 213,33.7882736 C213,41.8403909 219.536232,47 225.195652,47 Z M277,14.8721461 L277,23.7366819 L268.409091,23.7366819 L268.409091,55 L258.590909,55 L258.590909,23.7366819 L250,23.7366819 L250,14.8721461 L258.590909,14.8721461 L258.590909,3 L268.409091,3 L268.409091,14.8721461 L277,14.8721461 Z M313.52381,15 L324,15 L310.461538,53.6743516 C309.010989,57.7161383 308.043956,59.1426513 305.948718,61.3616715 L297.648352,70 L286.285714,70 L286.285714,60.4899135 L294.908425,60.4899135 C297.406593,60.4899135 298.937729,59.3804035 299.824176,56.6066282 L301.59707,51.2175793 L294.505495,51.2175793 L280,15 L290.879121,15 L303.208791,46.3832853 L313.52381,15 Z M350.395257,15 C361.620553,15 370,23.6965812 370,34.1951567 C370,38.8960114 368.26087,43.5968661 363.043478,49.0811966 L357.351779,55.0356125 C355.770751,55.8190883 353.557312,56.2891738 351.264822,56.2891738 C346.284585,56.2891738 341.857708,54.4088319 339.486166,51.5099715 L339.486166,70 L330,70 L330,15.7834758 L339.486166,15.7834758 L339.486166,20.7977208 L343.992095,16.0968661 C345.177866,15.4700855 348.023715,15 350.395257,15 Z M351.266187,47 C356.014388,47 361,43.6384365 361,36.1335505 C361,27.6905537 354.669065,23 348.971223,23 C344.064748,23 339,26.3615635 339,33.7882736 C339,42.2312704 345.489209,47 351.266187,47 Z M378,11 L378,0 L390,0 L390,11 L378,11 Z M379,56 L379,15 L389,15 L389,56 L379,56 Z M420.833333,14 C430.088889,14 436,20.4235977 436,30.2572534 L436,55 L426.666667,55 L426.666667,32.6363636 C426.666667,26.2920696 423.555556,22.7234043 418.811111,22.7234043 C413.755556,22.7234043 410.333333,26.2920696 410.333333,32.6363636 L410.333333,55 L401,55 L401,14.8723404 L410.333333,14.8723404 L410.333333,20.1856867 L415.155556,15.0309478 C415.855556,14.7137331 417.955556,14 420.833333,14 Z M473.460251,14.7983193 L483,14.7983193 L483,48.0084034 C483,53.5966387 482.125523,57.7478992 477.912134,62.2983193 L471.154812,69.4831933 C469.882845,70.1218487 467.020921,71 463.523013,71 C453.903766,71 447.225941,65.8907563 446.987448,56.8697479 L456.129707,56.8697479 C456.606695,59.6638655 458.753138,62.4579832 464.238494,62.4579832 C469.962343,62.4579832 473.460251,58.1470588 473.460251,52 L473.460251,47.8487395 L469.644351,51.9201681 C468.372385,52.5588235 466.066946,53.2773109 462.807531,53.2773109 C451.518828,53.2773109 445,45.5336134 445,35.7941176 C445,31.0042017 447.146444,25.9747899 452.075314,20.5462185 L456.924686,15.2773109 C458.276151,14.5588235 460.820084,14 462.887029,14 C466.861925,14 470.677824,15.4369748 473.460251,18.3907563 L473.460251,14.7983193 Z M464.877326,44 C470.395969,44 474.155045,39.6764706 473.995085,34.1176471 C473.755144,26.6286765 468.2365,23 463.3577,23 C457.679096,23 454,27.3235294 454,33.0367647 C454,40.3713235 459.838565,44 464.877326,44 Z M537,14.8721461 L537,23.7366819 L528.409091,23.7366819 L528.409091,55 L518.590909,55 L518.590909,23.7366819 L510,23.7366819 L510,14.8721461 L518.590909,14.8721461 L518.590909,3 L528.409091,3 L528.409091,14.8721461 L537,14.8721461 Z M564.833333,14.3785714 C574.088889,14.3785714 580,20.7428571 580,30.4857143 L580,55 L570.666667,55 L570.666667,32.8428571 C570.666667,26.5571429 567.555556,23.0214286 562.811111,23.0214286 C557.755556,23.0214286 554.333333,26.5571429 554.333333,32.8428571 L554.333333,55 L545,55 L545,0 L554.333333,0 L554.333333,20.5071429 L559.155556,15.4 C559.777778,15.0857143 561.8,14.3785714 564.833333,14.3785714 Z M610.419087,46.9943074 C615.543568,46.9943074 618.854772,44.3643264 620.431535,42.8500949 L625.004149,50.0227704 C621.219917,53.6091082 616.016598,56 609.86722,56 C598.593361,56 590,48.1100569 590,37.2713472 C590,30.6565465 592.838174,26.1935484 596.622407,22.2087287 L603.244813,15.2751423 C604.190871,14.7969639 606.39834,14 610.024896,14 C617.593361,14 626.580913,18.8614801 628,30.5768501 L620.904564,38.1480076 L599.381743,38.1480076 C600.485477,43.4079696 604.348548,46.9943074 610.419087,46.9943074 Z M608.345528,23 C603.556911,23 600.235772,26.2621359 599,31 L618,31 C617.073171,26.5728155 614.138211,23 608.345528,23 Z M25,137 L25,82 L61,82 L61,91.4285714 L34.7826087,91.4285714 L34.7826087,105.964286 L57.8695652,105.964286 L57.8695652,115 L34.7826087,115 L34.7826087,137 L25,137 Z M95.4545455,97 L105,97 L105,137.206963 L95.4545455,137.206963 L95.4545455,131.893617 L90.8409091,136.810445 C89.4886364,137.524178 87.5,138 84.6363636,138 C77.7954545,138 70,132.845261 70,122.218569 L70,97 L79.5454545,97 L79.5454545,120.235977 C79.5454545,125.549323 82.7272727,128.880077 87.5,128.880077 C92.2727273,128.880077 95.4545455,125.549323 95.4545455,120.235977 L95.4545455,97 Z M140,96.8721461 L140,105.736682 L131.409091,105.736682 L131.409091,137 L121.590909,137 L121.590909,105.736682 L113,105.736682 L113,96.8721461 L121.590909,96.8721461 L121.590909,85 L131.409091,85 L131.409091,96.8721461 L140,96.8721461 Z M172.454545,97 L182,97 L182,137.206963 L172.454545,137.206963 L172.454545,131.893617 L167.840909,136.810445 C166.488636,137.524178 164.5,138 161.636364,138 C154.795455,138 147,132.845261 147,122.218569 L147,97 L156.545455,97 L156.545455,120.235977 C156.545455,125.549323 159.727273,128.880077 164.5,128.880077 C169.272727,128.880077 172.454545,125.549323 172.454545,120.235977 L172.454545,97 Z M209.392226,97 L216,97 L216,107.108481 L211.102473,107.108481 C205.660777,107.108481 203.328622,109.534517 203.328622,115.195266 L203.328622,138 L194,138 L194,97 L203.328622,97 L203.328622,103.550296 L209.392226,97 Z M241.419087,128.994307 C246.543568,128.994307 249.854772,126.364326 251.431535,124.850095 L256.004149,132.02277 C252.219917,135.609108 247.016598,138 240.86722,138 C229.593361,138 221,130.110057 221,119.271347 C221,112.656546 223.838174,108.193548 227.622407,104.208729 L234.244813,97.2751423 C235.190871,96.7969639 237.39834,96 241.024896,96 C248.593361,96 257.580913,100.86148 259,112.57685 L251.904564,120.148008 L230.381743,120.148008 C231.485477,125.40797 235.348548,128.994307 241.419087,128.994307 Z M239.345528,105 C234.556911,105 231.235772,108.262136 230,113 L249,113 C248.073171,108.572816 245.138211,105 239.345528,105 Z M304.079051,138 C292.774704,138 284,129.1537 284,118.633776 C284,113.533207 285.818182,108.751423 289.849802,104.527514 L296.648221,97.4345351 C297.833992,96.7969639 300.521739,96 303.920949,96 C315.146245,96 324,104.8463 324,115.44592 C324,120.387097 322.339921,125.009488 317.754941,129.870968 L311.509881,136.485769 C309.375494,137.442125 307.083004,138 304.079051,138 Z M305.195652,129 C309.898551,129 315,125.638436 315,118.211726 C315,110.159609 308.463768,105 302.804348,105 C298.021739,105 293,108.361564 293,115.788274 C293,123.840391 299.536232,129 305.195652,129 Z M351.703125,91.0357143 C348.578125,91.0357143 347.40625,92.2142857 347.40625,95.3571429 L347.40625,97.1642857 L356,97.1642857 L356,105.964286 L347.40625,105.964286 L347.40625,137 L338.03125,137 L338.03125,105.964286 L331,105.964286 L331,97.1642857 L338.03125,97.1642857 L338.03125,96.0642857 C338.03125,93.4714286 339.046875,92.0571429 340.6875,90.3285714 L348.578125,82 L356,82 L356,91.0357143 L351.703125,91.0357143 Z M408.319287,138 C392.515397,138 381,126.3625 381,112.033333 C381,104.275 385.526742,97.2291667 390.291734,92.3208333 L399.504052,82.7416667 C401.727715,81.6333333 405.619125,81 408.875203,81 C418.08752,81 425.473258,84.1666667 430,90.025 L422.614263,97.625 C419.596434,93.825 415.069692,90.8958333 408.875203,90.8958333 C399.265802,90.8958333 390.927066,99.1291667 390.927066,109.579167 C390.927066,120.425 399.106969,128.025 408.875203,128.025 C416.102107,128.025 420.708266,124.541667 423.329011,121.770833 L429.602917,129.133333 C425.076175,134.4375 417.611021,138 408.319287,138 Z M466.52381,97 L477,97 L463.461538,135.674352 C462.010989,139.716138 461.043956,141.142651 458.948718,143.361671 L450.648352,152 L439.285714,152 L439.285714,142.489914 L447.908425,142.489914 C450.406593,142.489914 451.937729,141.380403 452.824176,138.606628 L454.59707,133.217579 L447.505495,133.217579 L433,97 L443.879121,97 L456.208791,128.383285 L466.52381,97 Z M501.274945,138 C487.625277,138 481,127.878558 481,118.793169 C481,112.975332 484.113082,108.193548 489.221729,102.933586 L494.569845,97.4345351 C496.166297,96.6375712 498.481153,96 501.75388,96 C508.45898,96 513.966741,99.5066414 516.361419,102.535104 L510.534368,109.229602 C508.778271,107.157495 505.585366,105.165085 501.354767,105.165085 C495.447894,105.165085 490.498891,110.425047 490.498891,117.039848 C490.498891,123.574953 495.288248,128.675522 501.674058,128.675522 C507.421286,128.675522 509.895787,126.045541 511.651885,124.690702 L517,131.464896 C513.807095,135.290323 507.980044,138 501.274945,138 Z M525,137 L525,82 L535,82 L535,137 L525,137 Z M545,92 L545,81 L557,81 L557,92 L545,92 Z M546,138 L546,97 L556,97 L556,138 L546,138 Z M587.833333,96 C597.088889,96 603,102.423598 603,112.257253 L603,137 L593.666667,137 L593.666667,114.636364 C593.666667,108.29207 590.555556,104.723404 585.811111,104.723404 C580.755556,104.723404 577.333333,108.29207 577.333333,114.636364 L577.333333,137 L568,137 L568,96.8723404 L577.333333,96.8723404 L577.333333,102.185687 L582.155556,97.0309478 C582.855556,96.7137331 584.955556,96 587.833333,96 Z M640.460251,96.7983193 L650,96.7983193 L650,130.008403 C650,135.596639 649.125523,139.747899 644.912134,144.298319 L638.154812,151.483193 C636.882845,152.121849 634.020921,153 630.523013,153 C620.903766,153 614.225941,147.890756 613.987448,138.869748 L623.129707,138.869748 C623.606695,141.663866 625.753138,144.457983 631.238494,144.457983 C636.962343,144.457983 640.460251,140.147059 640.460251,134 L640.460251,129.848739 L636.644351,133.920168 C635.372385,134.558824 633.066946,135.277311 629.807531,135.277311 C618.518828,135.277311 612,127.533613 612,117.794118 C612,113.004202 614.146444,107.97479 619.075314,102.546218 L623.924686,97.2773109 C625.276151,96.5588235 627.820084,96 629.887029,96 C633.861925,96 637.677824,97.4369748 640.460251,100.390756 L640.460251,96.7983193 Z M631.877326,126 C637.395969,126 641.155045,121.676471 640.995085,116.117647 C640.755144,108.628676 635.2365,105 630.3577,105 C624.679096,105 621,109.323529 621,115.036765 C621,122.371324 626.838565,126 631.877326,126 Z" id="PrototypingtheFutureofCycling" fill-rule="nonzero"></path>
                <rect id="Rectangle" opacity="0.294852121" x="33" y="42" width="608" height="28"></rect>
                <rect id="Rectangle" opacity="0.294852121" x="0" y="125" width="677" height="28"></rect>
            </g>
        </g>
    </g>
</svg>